STARTFONT 2.1
COMMENT
COMMENT Converted from OpenType font "FreeUniversal-Bold.ttf" by "otf2bdf 3.0".
COMMENT
FONT -FreeType-FreeUniversal-Bold-R-Normal--16-160-72-72-P-81-ISO10646-1
SIZE 16 72 72
FONTBOUNDINGBOX 24 21 -1 -4
STARTPROPERTIES 19
FOUNDRY "FreeType"
FAMILY_NAME "FreeUniversal"
WEIGHT_NAME "Bold"
SLANT "R"
SETWIDTH_NAME "Normal"
ADD_STYLE_NAME ""
PIXEL_SIZE 16
POINT_SIZE 160
RESOLUTION_X 72
RESOLUTION_Y 72
SPACING "P"
AVERAGE_WIDTH 81
CHARSET_REGISTRY "ISO10646"
CHARSET_ENCODING "1"
FONT_ASCENT 16
FONT_DESCENT 4
COPYRIGHT "FreeUniveral (c) Stephen Wilson 2009    Original Font Sil-Sophia  Copyright (c) SIL International, 1994-2008."
_OTF_FONTFILE "FreeUniversal-Bold.ttf"
_OTF_PSNAME "FreeUniversal-Bold"
ENDPROPERTIES
CHARS 243
STARTCHAR 0020
ENCODING 32
SWIDTH 312 0
DWIDTH 5 0
BBX 0 0 0 0
BITMAP
ENDCHAR
STARTCHAR 0021
ENCODING 33
SWIDTH 375 0
DWIDTH 6 0
BBX 2 11 2 0
BITMAP
C0
C0
C0
C0
C0
C0
C0
C0
00
00
C0
ENDCHAR
STARTCHAR 0022
ENCODING 34
SWIDTH 500 0
DWIDTH 8 0
BBX 6 5 1 6
BITMAP
CC
CC
CC
CC
CC
ENDCHAR
STARTCHAR 0023
ENCODING 35
SWIDTH 687 0
DWIDTH 11 0
BBX 10 11 1 0
BITMAP
0980
1980
1900
7FC0
3300
3200
3600
FF00
6400
6C00
4C00
ENDCHAR
STARTCHAR 0024
ENCODING 36
SWIDTH 625 0
DWIDTH 10 0
BBX 8 14 1 -2
BITMAP
08
3E
7E
CB
C8
F8
7E
0F
0B
CB
EB
7E
08
08
ENDCHAR
STARTCHAR 0025
ENCODING 37
SWIDTH 1062 0
DWIDTH 17 0
BBX 15 11 1 0
BITMAP
3C20
EE60
C640
C6C0
E780
7D7C
03EE
02C6
06C6
04EE
087C
ENDCHAR
STARTCHAR 0026
ENCODING 38
SWIDTH 812 0
DWIDTH 13 0
BBX 11 11 1 0
BITMAP
3E00
7700
6300
7700
3C00
7CC0
EEC0
C7C0
C3C0
F3C0
3FE0
ENDCHAR
STARTCHAR 0027
ENCODING 39
SWIDTH 437 0
DWIDTH 7 0
BBX 2 5 2 6
BITMAP
C0
C0
C0
C0
C0
ENDCHAR
STARTCHAR 0028
ENCODING 40
SWIDTH 375 0
DWIDTH 6 0
BBX 3 14 1 -3
BITMAP
60
60
60
E0
C0
C0
C0
C0
C0
C0
E0
60
60
60
ENDCHAR
STARTCHAR 0029
ENCODING 41
SWIDTH 437 0
DWIDTH 7 0
BBX 3 14 2 -3
BITMAP
C0
C0
C0
60
60
60
60
60
60
60
60
E0
C0
C0
ENDCHAR
STARTCHAR 002A
ENCODING 42
SWIDTH 625 0
DWIDTH 10 0
BBX 6 5 2 5
BITMAP
78
30
FC
30
78
ENDCHAR
STARTCHAR 002B
ENCODING 43
SWIDTH 1000 0
DWIDTH 16 0
BBX 9 9 3 0
BITMAP
0800
0800
0800
0800
FF80
0800
0800
0800
0800
ENDCHAR
STARTCHAR 002C
ENCODING 44
SWIDTH 312 0
DWIDTH 5 0
BBX 3 4 1 -2
BITMAP
60
60
C0
C0
ENDCHAR
STARTCHAR 002D
ENCODING 45
SWIDTH 375 0
DWIDTH 6 0
BBX 4 2 1 3
BITMAP
F0
F0
ENDCHAR
STARTCHAR 002E
ENCODING 46
SWIDTH 312 0
DWIDTH 5 0
BBX 2 2 2 0
BITMAP
C0
C0
ENDCHAR
STARTCHAR 002F
ENCODING 47
SWIDTH 437 0
DWIDTH 7 0
BBX 5 12 1 -1
BITMAP
18
18
10
30
30
20
20
60
60
40
C0
C0
ENDCHAR
STARTCHAR 0030
ENCODING 48
SWIDTH 562 0
DWIDTH 9 0
BBX 8 11 1 0
BITMAP
3C
66
C3
C3
C3
C3
C3
C3
C3
66
3C
ENDCHAR
STARTCHAR 0031
ENCODING 49
SWIDTH 562 0
DWIDTH 9 0
BBX 4 11 2 0
BITMAP
30
F0
F0
30
30
30
30
30
30
30
30
ENDCHAR
STARTCHAR 0032
ENCODING 50
SWIDTH 562 0
DWIDTH 9 0
BBX 8 11 1 0
BITMAP
3E
77
63
03
07
06
1E
3C
70
E0
FF
ENDCHAR
STARTCHAR 0033
ENCODING 51
SWIDTH 562 0
DWIDTH 9 0
BBX 8 11 1 0
BITMAP
7C
EE
C6
06
3C
06
03
C3
C7
7E
3C
ENDCHAR
STARTCHAR 0034
ENCODING 52
SWIDTH 562 0
DWIDTH 9 0
BBX 8 11 1 0
BITMAP
0E
1E
1E
36
66
66
C6
FF
FF
06
06
ENDCHAR
STARTCHAR 0035
ENCODING 53
SWIDTH 562 0
DWIDTH 9 0
BBX 8 11 1 0
BITMAP
FE
C0
C0
C0
FE
E7
03
03
C7
FE
7C
ENDCHAR
STARTCHAR 0036
ENCODING 54
SWIDTH 562 0
DWIDTH 9 0
BBX 8 11 1 0
BITMAP
3C
76
43
C0
DE
E7
C3
C3
C3
66
3C
ENDCHAR
STARTCHAR 0037
ENCODING 55
SWIDTH 562 0
DWIDTH 9 0
BBX 8 11 1 0
BITMAP
FF
03
07
06
0E
0C
1C
18
38
38
70
ENDCHAR
STARTCHAR 0038
ENCODING 56
SWIDTH 562 0
DWIDTH 9 0
BBX 8 11 1 0
BITMAP
7E
E7
C3
E7
3C
66
C3
C3
C3
E7
3C
ENDCHAR
STARTCHAR 0039
ENCODING 57
SWIDTH 562 0
DWIDTH 9 0
BBX 8 11 1 0
BITMAP
3C
66
C3
C3
E7
7F
03
03
C6
6E
3C
ENDCHAR
STARTCHAR 003A
ENCODING 58
SWIDTH 312 0
DWIDTH 5 0
BBX 2 8 2 0
BITMAP
C0
C0
00
00
00
00
C0
C0
ENDCHAR
STARTCHAR 003B
ENCODING 59
SWIDTH 312 0
DWIDTH 5 0
BBX 3 10 1 -2
BITMAP
60
60
00
00
00
00
60
60
C0
C0
ENDCHAR
STARTCHAR 003C
ENCODING 60
SWIDTH 1000 0
DWIDTH 16 0
BBX 10 8 3 1
BITMAP
0040
0380
0C00
7000
8000
7000
0E00
01C0
ENDCHAR
STARTCHAR 003D
ENCODING 61
SWIDTH 1000 0
DWIDTH 16 0
BBX 10 4 3 3
BITMAP
FFC0
0000
0000
FFC0
ENDCHAR
STARTCHAR 003E
ENCODING 62
SWIDTH 1000 0
DWIDTH 16 0
BBX 10 8 3 1
BITMAP
8000
6000
1C00
0380
00C0
0700
1800
E000
ENDCHAR
STARTCHAR 003F
ENCODING 63
SWIDTH 562 0
DWIDTH 9 0
BBX 7 11 1 0
BITMAP
78
EE
86
06
0C
18
30
30
30
00
30
ENDCHAR
STARTCHAR 0040
ENCODING 64
SWIDTH 1062 0
DWIDTH 17 0
BBX 15 14 1 -3
BITMAP
07E0
1E78
301C
67EC
EEE6
CC66
CC66
CC66
CC66
EFFC
67B8
3000
1C20
07E0
ENDCHAR
STARTCHAR 0041
ENCODING 65
SWIDTH 687 0
DWIDTH 11 0
BBX 11 11 0 0
BITMAP
0E00
0E00
0F00
1B00
1B80
3980
3180
3FC0
7FC0
60E0
E060
ENDCHAR
STARTCHAR 0042
ENCODING 66
SWIDTH 687 0
DWIDTH 11 0
BBX 9 11 1 0
BITMAP
FE00
C700
C300
C300
C700
FC00
C300
C180
C180
C380
FE00
ENDCHAR
STARTCHAR 0043
ENCODING 67
SWIDTH 750 0
DWIDTH 12 0
BBX 10 11 1 0
BITMAP
1F00
7380
61C0
C000
C000
C000
C000
C1C0
61C0
7380
1F00
ENDCHAR
STARTCHAR 0044
ENCODING 68
SWIDTH 687 0
DWIDTH 11 0
BBX 9 11 1 0
BITMAP
FC00
CF00
C300
C180
C180
C180
C180
C180
C300
CF00
FC00
ENDCHAR
STARTCHAR 0045
ENCODING 69
SWIDTH 625 0
DWIDTH 10 0
BBX 8 11 1 0
BITMAP
FF
C0
C0
C0
C0
FF
C0
C0
C0
C0
FF
ENDCHAR
STARTCHAR 0046
ENCODING 70
SWIDTH 562 0
DWIDTH 9 0
BBX 8 11 1 0
BITMAP
FF
C0
C0
C0
C0
FE
C0
C0
C0
C0
C0
ENDCHAR
STARTCHAR 0047
ENCODING 71
SWIDTH 750 0
DWIDTH 12 0
BBX 10 11 1 0
BITMAP
1F00
3BC0
60C0
E000
C000
C3C0
C0C0
C0C0
60C0
39C0
1FC0
ENDCHAR
STARTCHAR 0048
ENCODING 72
SWIDTH 687 0
DWIDTH 11 0
BBX 9 11 1 0
BITMAP
C180
C180
C180
C180
C180
FF80
C180
C180
C180
C180
C180
ENDCHAR
STARTCHAR 0049
ENCODING 73
SWIDTH 250 0
DWIDTH 4 0
BBX 2 11 1 0
BITMAP
C0
C0
C0
C0
C0
C0
C0
C0
C0
C0
C0
ENDCHAR
STARTCHAR 004A
ENCODING 74
SWIDTH 625 0
DWIDTH 10 0
BBX 8 11 1 0
BITMAP
03
03
03
03
03
03
03
C3
C3
FE
7C
ENDCHAR
STARTCHAR 004B
ENCODING 75
SWIDTH 687 0
DWIDTH 11 0
BBX 9 11 1 0
BITMAP
C300
C700
CE00
DC00
F800
F800
DC00
CE00
CE00
C700
C380
ENDCHAR
STARTCHAR 004C
ENCODING 76
SWIDTH 562 0
DWIDTH 9 0
BBX 8 11 1 0
BITMAP
C0
C0
C0
C0
C0
C0
C0
C0
C0
FF
FF
ENDCHAR
STARTCHAR 004D
ENCODING 77
SWIDTH 937 0
DWIDTH 15 0
BBX 13 11 1 0
BITMAP
F078
F078
F8F8
D8D8
D8D8
DDD8
CD98
CD98
CF98
C718
C718
ENDCHAR
STARTCHAR 004E
ENCODING 78
SWIDTH 750 0
DWIDTH 12 0
BBX 10 11 1 0
BITMAP
F0C0
F0C0
F8C0
D8C0
DCC0
CCC0
CEC0
C6C0
C7C0
C3C0
C3C0
ENDCHAR
STARTCHAR 004F
ENCODING 79
SWIDTH 812 0
DWIDTH 13 0
BBX 11 11 1 0
BITMAP
1F00
7BC0
60C0
C060
C060
C060
C060
C060
60C0
7BC0
1F00
ENDCHAR
STARTCHAR 0050
ENCODING 80
SWIDTH 625 0
DWIDTH 10 0
BBX 8 11 1 0
BITMAP
FC
C7
C3
C3
C7
FE
C0
C0
C0
C0
C0
ENDCHAR
STARTCHAR 0051
ENCODING 81
SWIDTH 875 0
DWIDTH 14 0
BBX 12 11 1 0
BITMAP
1F00
7B80
60C0
C060
C060
C060
C060
C060
60C0
7BC0
1FF0
ENDCHAR
STARTCHAR 0052
ENCODING 82
SWIDTH 687 0
DWIDTH 11 0
BBX 9 11 1 0
BITMAP
FE00
C780
C180
C180
C300
FE00
C300
C180
C180
C180
C180
ENDCHAR
STARTCHAR 0053
ENCODING 83
SWIDTH 687 0
DWIDTH 11 0
BBX 9 11 1 0
BITMAP
3E00
7700
C180
E000
F800
7F00
0F80
0180
C180
7700
3E00
ENDCHAR
STARTCHAR 0054
ENCODING 84
SWIDTH 687 0
DWIDTH 11 0
BBX 9 11 1 0
BITMAP
FF80
0C00
0C00
0C00
0C00
0C00
0C00
0C00
0C00
0C00
0C00
ENDCHAR
STARTCHAR 0055
ENCODING 85
SWIDTH 750 0
DWIDTH 12 0
BBX 10 11 1 0
BITMAP
C0C0
C0C0
C0C0
C0C0
C0C0
C0C0
C0C0
C0C0
E1C0
7380
3E00
ENDCHAR
STARTCHAR 0056
ENCODING 86
SWIDTH 750 0
DWIDTH 12 0
BBX 11 11 0 0
BITMAP
E060
6060
70E0
30C0
31C0
3980
1980
1F80
1F00
0F00
0E00
ENDCHAR
STARTCHAR 0057
ENCODING 87
SWIDTH 1000 0
DWIDTH 16 0
BBX 16 11 0 0
BITMAP
E187
63C6
63C6
63C6
77CE
366C
366C
366C
3C3C
1C38
1C38
ENDCHAR
STARTCHAR 0058
ENCODING 88
SWIDTH 687 0
DWIDTH 11 0
BBX 11 11 0 0
BITMAP
70C0
31C0
3B80
1F00
0E00
0E00
1F00
1B00
3380
71C0
E0E0
ENDCHAR
STARTCHAR 0059
ENCODING 89
SWIDTH 625 0
DWIDTH 10 0
BBX 10 11 0 0
BITMAP
E1C0
7180
3380
3B00
1F00
1E00
0C00
0C00
0C00
0C00
0C00
ENDCHAR
STARTCHAR 005A
ENCODING 90
SWIDTH 625 0
DWIDTH 10 0
BBX 8 11 1 0
BITMAP
FF
07
06
0E
1C
18
38
70
60
C0
FF
ENDCHAR
STARTCHAR 005B
ENCODING 91
SWIDTH 375 0
DWIDTH 6 0
BBX 4 14 1 -3
BITMAP
F0
C0
C0
C0
C0
C0
C0
C0
C0
C0
C0
C0
C0
F0
ENDCHAR
STARTCHAR 005C
ENCODING 92
SWIDTH 437 0
DWIDTH 7 0
BBX 5 12 1 -1
BITMAP
80
C0
C0
40
60
60
20
30
30
10
10
18
ENDCHAR
STARTCHAR 005D
ENCODING 93
SWIDTH 437 0
DWIDTH 7 0
BBX 4 14 1 -3
BITMAP
F0
30
30
30
30
30
30
30
30
30
30
30
30
F0
ENDCHAR
STARTCHAR 005E
ENCODING 94
SWIDTH 1000 0
DWIDTH 16 0
BBX 8 10 4 0
BITMAP
10
18
18
24
24
24
42
42
81
81
ENDCHAR
STARTCHAR 005F
ENCODING 95
SWIDTH 500 0
DWIDTH 8 0
BBX 8 1 0 -2
BITMAP
FF
ENDCHAR
STARTCHAR 0060
ENCODING 96
SWIDTH 250 0
DWIDTH 4 0
BBX 3 3 0 9
BITMAP
C0
40
20
ENDCHAR
STARTCHAR 0061
ENCODING 97
SWIDTH 562 0
DWIDTH 9 0
BBX 7 8 1 0
BITMAP
3C
6E
06
7E
E6
C6
EE
76
ENDCHAR
STARTCHAR 0062
ENCODING 98
SWIDTH 625 0
DWIDTH 10 0
BBX 8 11 1 0
BITMAP
C0
C0
C0
DC
F6
C7
C3
C3
C3
E6
DC
ENDCHAR
STARTCHAR 0063
ENCODING 99
SWIDTH 562 0
DWIDTH 9 0
BBX 7 8 1 0
BITMAP
3C
6E
C6
C0
C0
C6
EE
3C
ENDCHAR
STARTCHAR 0064
ENCODING 100
SWIDTH 625 0
DWIDTH 10 0
BBX 8 11 1 0
BITMAP
03
03
03
3B
6F
E3
C3
C3
C3
67
3B
ENDCHAR
STARTCHAR 0065
ENCODING 101
SWIDTH 562 0
DWIDTH 9 0
BBX 7 8 1 0
BITMAP
3C
6E
C6
FE
C0
C6
6E
3C
ENDCHAR
STARTCHAR 0066
ENCODING 102
SWIDTH 437 0
DWIDTH 7 0
BBX 5 11 1 0
BITMAP
38
30
30
F8
30
30
30
30
30
30
30
ENDCHAR
STARTCHAR 0067
ENCODING 103
SWIDTH 625 0
DWIDTH 10 0
BBX 8 11 1 -3
BITMAP
3B
6F
E3
C3
C3
C3
67
3B
03
67
3C
ENDCHAR
STARTCHAR 0068
ENCODING 104
SWIDTH 562 0
DWIDTH 9 0
BBX 7 11 1 0
BITMAP
C0
C0
C0
DC
EE
C6
C6
C6
C6
C6
C6
ENDCHAR
STARTCHAR 0069
ENCODING 105
SWIDTH 250 0
DWIDTH 4 0
BBX 2 11 1 0
BITMAP
C0
C0
00
C0
C0
C0
C0
C0
C0
C0
C0
ENDCHAR
STARTCHAR 006A
ENCODING 106
SWIDTH 312 0
DWIDTH 5 0
BBX 3 14 1 -3
BITMAP
60
60
00
60
60
60
60
60
60
60
60
60
E0
E0
ENDCHAR
STARTCHAR 006B
ENCODING 107
SWIDTH 562 0
DWIDTH 9 0
BBX 7 11 1 0
BITMAP
C0
C0
C0
CE
DC
D8
F0
D8
DC
CC
C6
ENDCHAR
STARTCHAR 006C
ENCODING 108
SWIDTH 250 0
DWIDTH 4 0
BBX 2 11 1 0
BITMAP
C0
C0
C0
C0
C0
C0
C0
C0
C0
C0
C0
ENDCHAR
STARTCHAR 006D
ENCODING 109
SWIDTH 875 0
DWIDTH 14 0
BBX 12 8 1 0
BITMAP
DCE0
EF70
C630
C630
C630
C630
C630
C630
ENDCHAR
STARTCHAR 006E
ENCODING 110
SWIDTH 562 0
DWIDTH 9 0
BBX 7 8 1 0
BITMAP
DC
EE
C6
C6
C6
C6
C6
C6
ENDCHAR
STARTCHAR 006F
ENCODING 111
SWIDTH 625 0
DWIDTH 10 0
BBX 8 8 1 0
BITMAP
3C
66
C3
C3
C3
C3
66
3C
ENDCHAR
STARTCHAR 0070
ENCODING 112
SWIDTH 625 0
DWIDTH 10 0
BBX 8 11 1 -3
BITMAP
DC
E6
C3
C3
C3
C7
F6
DC
C0
C0
C0
ENDCHAR
STARTCHAR 0071
ENCODING 113
SWIDTH 625 0
DWIDTH 10 0
BBX 8 11 1 -3
BITMAP
3B
67
C3
C3
C3
C3
6F
3B
03
03
03
ENDCHAR
STARTCHAR 0072
ENCODING 114
SWIDTH 437 0
DWIDTH 7 0
BBX 5 8 1 0
BITMAP
D8
F0
C0
C0
C0
C0
C0
C0
ENDCHAR
STARTCHAR 0073
ENCODING 115
SWIDTH 562 0
DWIDTH 9 0
BBX 7 8 1 0
BITMAP
7C
EE
C0
F8
1E
C6
EE
7C
ENDCHAR
STARTCHAR 0074
ENCODING 116
SWIDTH 500 0
DWIDTH 8 0
BBX 6 10 1 0
BITMAP
30
30
FC
30
30
30
30
30
38
1C
ENDCHAR
STARTCHAR 0075
ENCODING 117
SWIDTH 562 0
DWIDTH 9 0
BBX 7 8 1 0
BITMAP
C6
C6
C6
C6
C6
C6
EE
76
ENDCHAR
STARTCHAR 0076
ENCODING 118
SWIDTH 562 0
DWIDTH 9 0
BBX 8 8 0 0
BITMAP
E3
63
67
76
36
3C
1C
1C
ENDCHAR
STARTCHAR 0077
ENCODING 119
SWIDTH 875 0
DWIDTH 14 0
BBX 13 8 0 0
BITMAP
E718
6798
6798
6FB0
3DF0
3CF0
3CF0
38E0
ENDCHAR
STARTCHAR 0078
ENCODING 120
SWIDTH 562 0
DWIDTH 9 0
BBX 8 8 0 0
BITMAP
63
76
3E
1C
3C
3E
67
E3
ENDCHAR
STARTCHAR 0079
ENCODING 121
SWIDTH 562 0
DWIDTH 9 0
BBX 8 11 0 -3
BITMAP
E3
63
77
36
36
3E
1C
1C
18
18
38
ENDCHAR
STARTCHAR 007A
ENCODING 122
SWIDTH 500 0
DWIDTH 8 0
BBX 6 8 1 0
BITMAP
FC
0C
18
38
70
60
C0
FC
ENDCHAR
STARTCHAR 007B
ENCODING 123
SWIDTH 500 0
DWIDTH 8 0
BBX 6 15 1 -4
BITMAP
1C
38
30
30
30
30
70
C0
60
30
30
30
30
30
1C
ENDCHAR
STARTCHAR 007C
ENCODING 124
SWIDTH 312 0
DWIDTH 5 0
BBX 1 16 2 -4
BITMAP
80
80
80
80
80
80
80
80
80
80
80
80
80
80
80
80
ENDCHAR
STARTCHAR 007D
ENCODING 125
SWIDTH 500 0
DWIDTH 8 0
BBX 6 15 1 -4
BITMAP
E0
70
30
30
30
30
18
0C
18
30
30
30
30
30
F0
ENDCHAR
STARTCHAR 007E
ENCODING 126
SWIDTH 562 0
DWIDTH 9 0
BBX 8 2 0 3
BITMAP
79
DF
ENDCHAR
STARTCHAR 00A0
ENCODING 160
SWIDTH 312 0
DWIDTH 5 0
BBX 0 0 0 0
BITMAP
ENDCHAR
STARTCHAR 00A1
ENCODING 161
SWIDTH 375 0
DWIDTH 6 0
BBX 2 11 2 -3
BITMAP
C0
00
00
C0
C0
C0
C0
C0
C0
C0
C0
ENDCHAR
STARTCHAR 00A2
ENCODING 162
SWIDTH 562 0
DWIDTH 9 0
BBX 7 12 1 -2
BITMAP
04
04
3C
6E
CE
D0
D0
D6
6E
3C
20
40
ENDCHAR
STARTCHAR 00A3
ENCODING 163
SWIDTH 625 0
DWIDTH 10 0
BBX 8 11 1 0
BITMAP
3E
77
60
60
FC
60
60
60
60
60
FF
ENDCHAR
STARTCHAR 00A4
ENCODING 164
SWIDTH 625 0
DWIDTH 10 0
BBX 9 8 1 2
BITMAP
8080
5D00
2200
4100
4100
2200
5D00
8080
ENDCHAR
STARTCHAR 00A5
ENCODING 165
SWIDTH 687 0
DWIDTH 11 0
BBX 9 11 1 0
BITMAP
C380
6300
6700
F780
3E00
3C00
FF80
1800
1800
1800
1800
ENDCHAR
STARTCHAR 00A6
ENCODING 166
SWIDTH 312 0
DWIDTH 5 0
BBX 1 14 2 -3
BITMAP
80
80
80
80
80
80
00
00
80
80
80
80
80
80
ENDCHAR
STARTCHAR 00A7
ENCODING 167
SWIDTH 500 0
DWIDTH 8 0
BBX 6 14 1 -3
BITMAP
78
EC
C0
E0
78
7C
CC
CC
F8
78
1C
0C
9C
F8
ENDCHAR
STARTCHAR 00A8
ENCODING 168
SWIDTH 312 0
DWIDTH 5 0
BBX 5 1 0 10
BITMAP
D8
ENDCHAR
STARTCHAR 00A9
ENCODING 169
SWIDTH 875 0
DWIDTH 14 0
BBX 12 11 1 0
BITMAP
1F80
39C0
6F60
D9B0
9810
9810
9990
8F10
4020
30C0
1F80
ENDCHAR
STARTCHAR 00AA
ENCODING 170
SWIDTH 437 0
DWIDTH 7 0
BBX 5 8 1 3
BITMAP
70
D8
78
D8
D8
78
00
F8
ENDCHAR
STARTCHAR 00AB
ENCODING 171
SWIDTH 625 0
DWIDTH 10 0
BBX 8 6 1 1
BITMAP
67
66
EE
CE
66
67
ENDCHAR
STARTCHAR 00AC
ENCODING 172
SWIDTH 625 0
DWIDTH 10 0
BBX 9 4 0 3
BITMAP
FF80
0080
0080
0080
ENDCHAR
STARTCHAR 00AE
ENCODING 174
SWIDTH 875 0
DWIDTH 14 0
BBX 12 11 1 0
BITMAP
1F80
39C0
6F60
C9B0
8890
8F10
8990
8890
48A0
30C0
1F80
ENDCHAR
STARTCHAR 00AF
ENCODING 175
SWIDTH 312 0
DWIDTH 5 0
BBX 5 1 0 10
BITMAP
F8
ENDCHAR
STARTCHAR 00B0
ENCODING 176
SWIDTH 375 0
DWIDTH 6 0
BBX 4 4 1 7
BITMAP
60
D0
90
F0
ENDCHAR
STARTCHAR 00B1
ENCODING 177
SWIDTH 1000 0
DWIDTH 16 0
BBX 9 10 3 0
BITMAP
0800
0800
0800
FF80
0800
0800
0800
0000
0000
FF80
ENDCHAR
STARTCHAR 00B2
ENCODING 178
SWIDTH 437 0
DWIDTH 7 0
BBX 5 6 1 5
BITMAP
70
D8
18
30
C0
F8
ENDCHAR
STARTCHAR 00B3
ENCODING 179
SWIDTH 437 0
DWIDTH 7 0
BBX 5 7 1 4
BITMAP
70
D8
18
70
18
D8
70
ENDCHAR
STARTCHAR 00B4
ENCODING 180
SWIDTH 250 0
DWIDTH 4 0
BBX 3 3 1 9
BITMAP
60
C0
80
ENDCHAR
STARTCHAR 00B6
ENCODING 182
SWIDTH 562 0
DWIDTH 9 0
BBX 7 14 1 -3
BITMAP
7E
F4
F4
F4
F4
74
14
14
14
14
14
14
14
14
ENDCHAR
STARTCHAR 00B7
ENCODING 183
SWIDTH 250 0
DWIDTH 4 0
BBX 2 2 1 4
BITMAP
C0
C0
ENDCHAR
STARTCHAR 00B8
ENCODING 184
SWIDTH 187 0
DWIDTH 3 0
BBX 4 4 0 -4
BITMAP
40
30
B0
E0
ENDCHAR
STARTCHAR 00B9
ENCODING 185
SWIDTH 312 0
DWIDTH 5 0
BBX 3 6 1 5
BITMAP
60
E0
60
60
60
60
ENDCHAR
STARTCHAR 00BA
ENCODING 186
SWIDTH 500 0
DWIDTH 8 0
BBX 6 8 1 3
BITMAP
78
FC
CC
CC
CC
78
00
FC
ENDCHAR
STARTCHAR 00BB
ENCODING 187
SWIDTH 625 0
DWIDTH 10 0
BBX 8 6 1 1
BITMAP
CC
66
67
67
66
CC
ENDCHAR
STARTCHAR 00BC
ENCODING 188
SWIDTH 812 0
DWIDTH 13 0
BBX 12 11 1 0
BITMAP
E080
6180
6300
6300
6600
6CE0
0CE0
19E0
1960
33F0
6060
ENDCHAR
STARTCHAR 00BD
ENCODING 189
SWIDTH 812 0
DWIDTH 13 0
BBX 11 11 1 0
BITMAP
6100
E300
6200
6600
6400
6DE0
1B60
1860
31C0
2300
63E0
ENDCHAR
STARTCHAR 00BE
ENCODING 190
SWIDTH 812 0
DWIDTH 13 0
BBX 12 11 1 0
BITMAP
78C0
D880
7180
D900
7300
0660
04E0
0DE0
1960
19F0
3060
ENDCHAR
STARTCHAR 00BF
ENCODING 191
SWIDTH 562 0
DWIDTH 9 0
BBX 7 11 1 -3
BITMAP
18
00
18
18
38
70
E0
C0
C2
FE
3C
ENDCHAR
STARTCHAR 00C0
ENCODING 192
SWIDTH 687 0
DWIDTH 11 0
BBX 11 16 0 0
BITMAP
1800
0C00
0400
0000
0000
0E00
0E00
0F00
1B00
1B80
3980
3180
3FC0
7FC0
60E0
E060
ENDCHAR
STARTCHAR 00C1
ENCODING 193
SWIDTH 687 0
DWIDTH 11 0
BBX 11 16 0 0
BITMAP
0300
0200
0400
0000
0000
0E00
0E00
0F00
1B00
1B80
3980
3180
3FC0
7FC0
60E0
E060
ENDCHAR
STARTCHAR 00C2
ENCODING 194
SWIDTH 687 0
DWIDTH 11 0
BBX 11 16 0 0
BITMAP
0600
0E00
1900
0000
0000
0E00
0E00
0F00
1B00
1B80
3980
3180
3FC0
7FC0
60E0
E060
ENDCHAR
STARTCHAR 00C3
ENCODING 195
SWIDTH 687 0
DWIDTH 11 0
BBX 11 15 0 0
BITMAP
0D00
1700
0000
0000
0E00
0E00
0F00
1B00
1B80
3980
3180
3FC0
7FC0
60E0
E060
ENDCHAR
STARTCHAR 00C4
ENCODING 196
SWIDTH 687 0
DWIDTH 11 0
BBX 11 15 0 0
BITMAP
1B00
0000
0000
0000
0E00
0E00
0F00
1B00
1B00
3B80
3180
3FC0
7FC0
60E0
E060
ENDCHAR
STARTCHAR 00C5
ENCODING 197
SWIDTH 750 0
DWIDTH 12 0
BBX 10 17 1 0
BITMAP
0C00
1200
1200
1E00
0000
0000
0C00
1E00
1E00
3F00
3300
3300
6380
7F80
FFC0
C0C0
C0C0
ENDCHAR
STARTCHAR 00C6
ENCODING 198
SWIDTH 1000 0
DWIDTH 16 0
BBX 15 11 0 0
BITMAP
03FE
0780
0780
0D80
1D80
19FE
3980
3F80
6180
6180
C1FE
ENDCHAR
STARTCHAR 00C7
ENCODING 199
SWIDTH 750 0
DWIDTH 12 0
BBX 10 15 1 -4
BITMAP
1F00
7780
61C0
C000
C000
C000
C000
C1C0
61C0
7380
3E00
0800
0E00
0200
1C00
ENDCHAR
STARTCHAR 00C8
ENCODING 200
SWIDTH 625 0
DWIDTH 10 0
BBX 8 16 1 0
BITMAP
60
30
18
00
00
FF
C0
C0
C0
C0
FF
C0
C0
C0
C0
FF
ENDCHAR
STARTCHAR 00C9
ENCODING 201
SWIDTH 625 0
DWIDTH 10 0
BBX 8 16 1 0
BITMAP
0C
08
10
00
00
FF
C0
C0
C0
C0
FF
C0
C0
C0
C0
FF
ENDCHAR
STARTCHAR 00CA
ENCODING 202
SWIDTH 625 0
DWIDTH 10 0
BBX 8 16 1 0
BITMAP
18
3C
24
00
00
FF
C0
C0
C0
C0
FF
C0
C0
C0
C0
FF
ENDCHAR
STARTCHAR 00CB
ENCODING 203
SWIDTH 625 0
DWIDTH 10 0
BBX 8 15 1 0
BITMAP
66
00
00
00
FF
C0
C0
C0
C0
FF
C0
C0
C0
C0
FF
ENDCHAR
STARTCHAR 00CC
ENCODING 204
SWIDTH 250 0
DWIDTH 4 0
BBX 4 16 -1 0
BITMAP
C0
60
30
00
00
30
30
30
30
30
30
30
30
30
30
30
ENDCHAR
STARTCHAR 00CD
ENCODING 205
SWIDTH 250 0
DWIDTH 4 0
BBX 4 16 1 0
BITMAP
70
60
C0
00
00
C0
C0
C0
C0
C0
C0
C0
C0
C0
C0
C0
ENDCHAR
STARTCHAR 00CE
ENCODING 206
SWIDTH 250 0
DWIDTH 4 0
BBX 4 16 0 0
BITMAP
60
F0
90
00
00
60
60
60
60
60
60
60
60
60
60
60
ENDCHAR
STARTCHAR 00CF
ENCODING 207
SWIDTH 312 0
DWIDTH 5 0
BBX 5 15 0 0
BITMAP
D8
00
00
00
30
30
30
30
30
30
30
30
30
30
30
ENDCHAR
STARTCHAR 00D0
ENCODING 208
SWIDTH 750 0
DWIDTH 12 0
BBX 11 11 0 0
BITMAP
7F00
6380
60C0
60E0
6060
FC60
6060
60E0
60C0
6380
7F00
ENDCHAR
STARTCHAR 00D1
ENCODING 209
SWIDTH 750 0
DWIDTH 12 0
BBX 10 15 1 0
BITMAP
1900
1600
0000
0000
F0C0
F0C0
F8C0
D8C0
DCC0
CCC0
CEC0
C6C0
C7C0
C3C0
C3C0
ENDCHAR
STARTCHAR 00D2
ENCODING 210
SWIDTH 812 0
DWIDTH 13 0
BBX 11 16 1 0
BITMAP
1800
0800
0C00
0000
0000
1F00
7BC0
60C0
C060
C060
C060
C060
C060
60C0
7BC0
1F00
ENDCHAR
STARTCHAR 00D3
ENCODING 211
SWIDTH 812 0
DWIDTH 13 0
BBX 11 16 1 0
BITMAP
0300
0200
0400
0000
0000
1F00
7BC0
60C0
C060
C060
C060
C060
C060
60C0
7BC0
1F00
ENDCHAR
STARTCHAR 00D4
ENCODING 212
SWIDTH 812 0
DWIDTH 13 0
BBX 11 16 1 0
BITMAP
0E00
1B00
1100
0000
0000
1F00
7BC0
60C0
C060
C060
C060
C060
C060
60C0
7BC0
1F00
ENDCHAR
STARTCHAR 00D5
ENCODING 213
SWIDTH 812 0
DWIDTH 13 0
BBX 11 15 1 0
BITMAP
1F00
0000
0000
0000
1F00
7BC0
60C0
C060
C060
C060
C060
E0E0
60C0
7FC0
1F00
ENDCHAR
STARTCHAR 00D6
ENCODING 214
SWIDTH 812 0
DWIDTH 13 0
BBX 11 15 1 0
BITMAP
1B00
0000
0000
0000
1F00
7BC0
60C0
C060
C060
C060
C060
C060
60C0
7BC0
1F00
ENDCHAR
STARTCHAR 00D7
ENCODING 215
SWIDTH 1000 0
DWIDTH 16 0
BBX 8 8 4 0
BITMAP
81
C3
66
18
18
24
42
81
ENDCHAR
STARTCHAR 00D8
ENCODING 216
SWIDTH 812 0
DWIDTH 13 0
BBX 11 11 1 0
BITMAP
1FA0
3BC0
60C0
C160
C260
C460
C860
D060
E0C0
7B80
BF00
ENDCHAR
STARTCHAR 00D9
ENCODING 217
SWIDTH 750 0
DWIDTH 12 0
BBX 10 16 1 0
BITMAP
3000
1800
0800
0000
0000
C0C0
C0C0
C0C0
C0C0
C0C0
C0C0
C0C0
C0C0
E1C0
7F80
3E00
ENDCHAR
STARTCHAR 00DA
ENCODING 218
SWIDTH 750 0
DWIDTH 12 0
BBX 10 16 1 0
BITMAP
0300
0600
0400
0000
0000
C0C0
C0C0
C0C0
C0C0
C0C0
C0C0
C0C0
C0C0
E1C0
7F80
3E00
ENDCHAR
STARTCHAR 00DB
ENCODING 219
SWIDTH 750 0
DWIDTH 12 0
BBX 10 16 1 0
BITMAP
1C00
1E00
3300
0000
0000
C0C0
C0C0
C0C0
C0C0
C0C0
C0C0
C0C0
C0C0
E1C0
7F80
3E00
ENDCHAR
STARTCHAR 00DC
ENCODING 220
SWIDTH 750 0
DWIDTH 12 0
BBX 10 15 1 0
BITMAP
3300
0000
0000
0000
C0C0
C0C0
C0C0
C0C0
C0C0
C0C0
C0C0
C0C0
E1C0
7380
3E00
ENDCHAR
STARTCHAR 00DD
ENCODING 221
SWIDTH 625 0
DWIDTH 10 0
BBX 10 16 0 0
BITMAP
0600
0600
0400
0000
0000
E1C0
7180
3380
3B00
1F00
1E00
0C00
0C00
0C00
0C00
0C00
ENDCHAR
STARTCHAR 00DE
ENCODING 222
SWIDTH 625 0
DWIDTH 10 0
BBX 8 11 1 0
BITMAP
C0
C0
FE
C7
C3
C3
C7
FE
C0
C0
C0
ENDCHAR
STARTCHAR 00DF
ENCODING 223
SWIDTH 625 0
DWIDTH 10 0
BBX 8 11 1 0
BITMAP
7C
EE
C6
CE
DC
D8
CE
C7
C3
DB
DE
ENDCHAR
STARTCHAR 00E0
ENCODING 224
SWIDTH 562 0
DWIDTH 9 0
BBX 7 12 1 0
BITMAP
60
30
10
00
3C
6E
06
7E
E6
C6
EE
76
ENDCHAR
STARTCHAR 00E1
ENCODING 225
SWIDTH 562 0
DWIDTH 9 0
BBX 7 12 1 0
BITMAP
0C
18
10
00
3C
6E
06
7E
E6
C6
EE
76
ENDCHAR
STARTCHAR 00E2
ENCODING 226
SWIDTH 562 0
DWIDTH 9 0
BBX 7 12 1 0
BITMAP
38
2C
44
00
3C
6E
06
7E
E6
C6
EE
76
ENDCHAR
STARTCHAR 00E3
ENCODING 227
SWIDTH 562 0
DWIDTH 9 0
BBX 7 11 1 0
BITMAP
3C
00
00
3C
6E
06
7E
E6
C6
EE
76
ENDCHAR
STARTCHAR 00E4
ENCODING 228
SWIDTH 562 0
DWIDTH 9 0
BBX 7 11 1 0
BITMAP
6C
00
00
3C
E6
06
7E
E6
C6
EE
76
ENDCHAR
STARTCHAR 00E5
ENCODING 229
SWIDTH 562 0
DWIDTH 9 0
BBX 7 13 1 0
BITMAP
18
24
24
3C
00
3C
66
06
7E
E6
C6
EE
7E
ENDCHAR
STARTCHAR 00E6
ENCODING 230
SWIDTH 937 0
DWIDTH 15 0
BBX 13 8 1 0
BITMAP
3CE0
67B0
0718
7FF8
E700
C718
EDB8
78F0
ENDCHAR
STARTCHAR 00E7
ENCODING 231
SWIDTH 562 0
DWIDTH 9 0
BBX 7 12 1 -4
BITMAP
3C
6E
C6
C0
C0
C6
6E
3C
10
1C
04
38
ENDCHAR
STARTCHAR 00E8
ENCODING 232
SWIDTH 562 0
DWIDTH 9 0
BBX 7 13 1 0
BITMAP
60
20
30
10
00
3C
6E
C6
FE
C0
C6
6E
3C
ENDCHAR
STARTCHAR 00E9
ENCODING 233
SWIDTH 562 0
DWIDTH 9 0
BBX 7 13 1 0
BITMAP
0C
0C
18
10
00
3C
6E
C6
FE
C0
C6
6E
3C
ENDCHAR
STARTCHAR 00EA
ENCODING 234
SWIDTH 562 0
DWIDTH 9 0
BBX 7 13 1 0
BITMAP
18
38
2C
44
00
3C
6E
C6
FE
C0
C6
6E
3C
ENDCHAR
STARTCHAR 00EB
ENCODING 235
SWIDTH 562 0
DWIDTH 9 0
BBX 7 12 1 0
BITMAP
6C
00
00
00
3C
6E
C6
FE
C0
CE
6E
3C
ENDCHAR
STARTCHAR 00EC
ENCODING 236
SWIDTH 250 0
DWIDTH 4 0
BBX 3 12 0 0
BITMAP
C0
60
20
00
60
60
60
60
60
60
60
60
ENDCHAR
STARTCHAR 00ED
ENCODING 237
SWIDTH 250 0
DWIDTH 4 0
BBX 3 12 1 0
BITMAP
60
C0
80
00
C0
C0
C0
C0
C0
C0
C0
C0
ENDCHAR
STARTCHAR 00EE
ENCODING 238
SWIDTH 250 0
DWIDTH 4 0
BBX 5 12 0 0
BITMAP
60
D0
88
00
60
60
60
60
60
60
60
60
ENDCHAR
STARTCHAR 00EF
ENCODING 239
SWIDTH 312 0
DWIDTH 5 0
BBX 5 11 0 0
BITMAP
D8
00
00
30
30
30
30
30
30
30
30
ENDCHAR
STARTCHAR 00F0
ENCODING 240
SWIDTH 625 0
DWIDTH 10 0
BBX 8 11 1 0
BITMAP
33
1C
66
3E
67
C3
C3
C3
C3
67
3C
ENDCHAR
STARTCHAR 00F1
ENCODING 241
SWIDTH 562 0
DWIDTH 9 0
BBX 7 11 1 0
BITMAP
3C
00
00
DC
EE
C6
C6
C6
C6
C6
C6
ENDCHAR
STARTCHAR 00F2
ENCODING 242
SWIDTH 625 0
DWIDTH 10 0
BBX 8 13 1 0
BITMAP
60
30
10
08
00
3C
66
C3
C3
C3
C3
66
3C
ENDCHAR
STARTCHAR 00F3
ENCODING 243
SWIDTH 625 0
DWIDTH 10 0
BBX 8 13 1 0
BITMAP
06
0C
08
10
00
3C
66
C3
C3
C3
C3
66
3C
ENDCHAR
STARTCHAR 00F4
ENCODING 244
SWIDTH 625 0
DWIDTH 10 0
BBX 8 13 1 0
BITMAP
18
1C
24
22
00
3C
66
C3
C3
C3
C3
66
3C
ENDCHAR
STARTCHAR 00F5
ENCODING 245
SWIDTH 625 0
DWIDTH 10 0
BBX 8 11 1 0
BITMAP
3C
00
00
3C
66
C3
C3
C3
C3
66
3C
ENDCHAR
STARTCHAR 00F6
ENCODING 246
SWIDTH 625 0
DWIDTH 10 0
BBX 8 12 1 0
BITMAP
66
00
00
00
3C
66
C3
C3
C3
C3
66
3C
ENDCHAR
STARTCHAR 00F7
ENCODING 247
SWIDTH 1000 0
DWIDTH 16 0
BBX 10 6 3 2
BITMAP
0C00
0000
FFC0
0000
0000
0C00
ENDCHAR
STARTCHAR 00F8
ENCODING 248
SWIDTH 625 0
DWIDTH 10 0
BBX 8 10 1 -1
BITMAP
01
3E
66
CF
CB
D3
E3
76
FC
80
ENDCHAR
STARTCHAR 00F9
ENCODING 249
SWIDTH 562 0
DWIDTH 9 0
BBX 7 12 1 0
BITMAP
60
30
10
00
C6
C6
C6
C6
C6
C6
EE
76
ENDCHAR
STARTCHAR 00FA
ENCODING 250
SWIDTH 562 0
DWIDTH 9 0
BBX 7 12 1 0
BITMAP
0C
18
10
00
C6
C6
C6
C6
C6
C6
EE
76
ENDCHAR
STARTCHAR 00FB
ENCODING 251
SWIDTH 562 0
DWIDTH 9 0
BBX 7 12 1 0
BITMAP
38
28
44
00
C6
C6
C6
C6
C6
C6
EE
76
ENDCHAR
STARTCHAR 00FC
ENCODING 252
SWIDTH 562 0
DWIDTH 9 0
BBX 7 11 1 0
BITMAP
6C
00
00
C6
C6
C6
C6
C6
C6
EE
76
ENDCHAR
STARTCHAR 00FD
ENCODING 253
SWIDTH 562 0
DWIDTH 9 0
BBX 9 16 0 -3
BITMAP
0700
0600
0C00
0800
0000
6380
6300
7300
3600
3600
1E00
1C00
1C00
1C00
F800
7000
ENDCHAR
STARTCHAR 00FE
ENCODING 254
SWIDTH 625 0
DWIDTH 10 0
BBX 8 14 1 -3
BITMAP
C0
C0
C0
DC
E6
C3
C3
C3
C7
E6
DC
C0
C0
C0
ENDCHAR
STARTCHAR 00FF
ENCODING 255
SWIDTH 562 0
DWIDTH 9 0
BBX 8 14 1 -3
BITMAP
6C
00
00
C7
C6
EE
6C
6C
3C
38
38
38
30
30
ENDCHAR
STARTCHAR 0131
ENCODING 305
SWIDTH 250 0
DWIDTH 4 0
BBX 2 8 1 0
BITMAP
C0
C0
C0
C0
C0
C0
C0
C0
ENDCHAR
STARTCHAR 0141
ENCODING 321
SWIDTH 625 0
DWIDTH 10 0
BBX 9 11 1 0
BITMAP
6000
6000
6800
7800
7000
6000
E000
E000
6000
7F80
7F80
ENDCHAR
STARTCHAR 0142
ENCODING 322
SWIDTH 375 0
DWIDTH 6 0
BBX 5 11 1 0
BITMAP
60
60
68
78
70
E0
E0
60
60
60
60
ENDCHAR
STARTCHAR 0152
ENCODING 338
SWIDTH 1062 0
DWIDTH 17 0
BBX 15 11 1 0
BITMAP
1FFE
7FFE
7180
E180
C180
C1FC
C180
C180
6180
7180
1FFE
ENDCHAR
STARTCHAR 0153
ENCODING 339
SWIDTH 937 0
DWIDTH 15 0
BBX 13 8 1 0
BITMAP
3DF0
67B8
C318
C3F8
C300
C318
67B8
3DF0
ENDCHAR
STARTCHAR 0160
ENCODING 352
SWIDTH 687 0
DWIDTH 11 0
BBX 9 16 1 0
BITMAP
2200
3600
1C00
0000
0000
3E00
7700
C180
E000
F800
3F00
0780
C180
C180
7F00
3E00
ENDCHAR
STARTCHAR 0161
ENCODING 353
SWIDTH 562 0
DWIDTH 9 0
BBX 7 13 1 0
BITMAP
44
68
38
00
00
7C
EE
C0
F8
1E
C6
EE
7C
ENDCHAR
STARTCHAR 0178
ENCODING 376
SWIDTH 687 0
DWIDTH 11 0
BBX 9 15 1 0
BITMAP
3600
0000
0000
0000
C180
E380
6300
3700
3E00
1E00
0C00
0C00
0C00
0C00
0C00
ENDCHAR
STARTCHAR 017D
ENCODING 381
SWIDTH 625 0
DWIDTH 10 0
BBX 8 16 1 0
BITMAP
44
2C
38
00
00
FF
07
06
0E
1C
18
38
70
60
C0
FF
ENDCHAR
STARTCHAR 017E
ENCODING 382
SWIDTH 500 0
DWIDTH 8 0
BBX 6 12 1 0
BITMAP
48
38
30
00
FC
0C
18
38
70
60
C0
FC
ENDCHAR
STARTCHAR 0192
ENCODING 402
SWIDTH 500 0
DWIDTH 8 0
BBX 10 14 -1 -3
BITMAP
03C0
0300
0600
1F80
0C00
0C00
0C00
0C00
1800
1800
1800
3000
F000
E000
ENDCHAR
STARTCHAR 02C6
ENCODING 710
SWIDTH 312 0
DWIDTH 5 0
BBX 5 3 0 9
BITMAP
70
50
C8
ENDCHAR
STARTCHAR 02C7
ENCODING 711
SWIDTH 312 0
DWIDTH 5 0
BBX 5 3 0 9
BITMAP
C8
50
70
ENDCHAR
STARTCHAR 02D8
ENCODING 728
SWIDTH 312 0
DWIDTH 5 0
BBX 5 2 0 10
BITMAP
88
70
ENDCHAR
STARTCHAR 02D9
ENCODING 729
SWIDTH 125 0
DWIDTH 2 0
BBX 2 2 0 9
BITMAP
C0
C0
ENDCHAR
STARTCHAR 02DA
ENCODING 730
SWIDTH 250 0
DWIDTH 4 0
BBX 4 4 0 9
BITMAP
60
90
90
F0
ENDCHAR
STARTCHAR 02DB
ENCODING 731
SWIDTH 187 0
DWIDTH 3 0
BBX 2 3 0 -3
BITMAP
80
80
C0
ENDCHAR
STARTCHAR 02DC
ENCODING 732
SWIDTH 312 0
DWIDTH 5 0
BBX 5 1 0 10
BITMAP
F8
ENDCHAR
STARTCHAR 02DD
ENCODING 733
SWIDTH 312 0
DWIDTH 5 0
BBX 5 3 0 9
BITMAP
58
D0
90
ENDCHAR
STARTCHAR 0394
ENCODING 916
SWIDTH 625 0
DWIDTH 10 0
BBX 10 11 0 0
BITMAP
0400
0400
0E00
1600
1200
1300
2300
2180
4180
40C0
FFC0
ENDCHAR
STARTCHAR 03A9
ENCODING 937
SWIDTH 812 0
DWIDTH 13 0
BBX 12 11 1 0
BITMAP
1F00
60C0
4040
C060
C060
C060
C060
60C0
1190
8930
F9F0
ENDCHAR
STARTCHAR 03BC
ENCODING 956
SWIDTH 625 0
DWIDTH 10 0
BBX 9 11 1 -3
BITMAP
C600
C600
C600
C600
C600
C600
EF80
FB80
C000
C000
C000
ENDCHAR
STARTCHAR 03C0
ENCODING 960
SWIDTH 625 0
DWIDTH 10 0
BBX 8 8 1 0
BITMAP
7F
A4
24
24
24
64
67
C7
ENDCHAR
STARTCHAR 2013
ENCODING 8211
SWIDTH 500 0
DWIDTH 8 0
BBX 8 1 0 4
BITMAP
FF
ENDCHAR
STARTCHAR 2014
ENCODING 8212
SWIDTH 1000 0
DWIDTH 16 0
BBX 16 1 0 4
BITMAP
FFFF
ENDCHAR
STARTCHAR 2018
ENCODING 8216
SWIDTH 250 0
DWIDTH 4 0
BBX 3 4 1 7
BITMAP
60
40
C0
C0
ENDCHAR
STARTCHAR 2019
ENCODING 8217
SWIDTH 250 0
DWIDTH 4 0
BBX 3 4 1 7
BITMAP
60
C0
C0
80
ENDCHAR
STARTCHAR 201A
ENCODING 8218
SWIDTH 250 0
DWIDTH 4 0
BBX 3 4 1 -2
BITMAP
60
C0
C0
80
ENDCHAR
STARTCHAR 201C
ENCODING 8220
SWIDTH 500 0
DWIDTH 8 0
BBX 6 4 1 7
BITMAP
6C
4C
D8
D8
ENDCHAR
STARTCHAR 201D
ENCODING 8221
SWIDTH 500 0
DWIDTH 8 0
BBX 6 4 1 7
BITMAP
6C
D8
D8
90
ENDCHAR
STARTCHAR 201E
ENCODING 8222
SWIDTH 500 0
DWIDTH 8 0
BBX 6 4 1 -2
BITMAP
6C
C8
D8
98
ENDCHAR
STARTCHAR 2020
ENCODING 8224
SWIDTH 562 0
DWIDTH 9 0
BBX 7 14 1 -3
BITMAP
18
18
18
FE
18
18
18
18
18
18
18
18
18
18
ENDCHAR
STARTCHAR 2021
ENCODING 8225
SWIDTH 562 0
DWIDTH 9 0
BBX 7 14 1 -3
BITMAP
18
18
18
FE
18
18
18
18
18
FE
18
18
18
18
ENDCHAR
STARTCHAR 2022
ENCODING 8226
SWIDTH 375 0
DWIDTH 6 0
BBX 4 4 1 4
BITMAP
60
F0
F0
60
ENDCHAR
STARTCHAR 2026
ENCODING 8230
SWIDTH 1000 0
DWIDTH 16 0
BBX 14 2 1 0
BITMAP
C30C
C30C
ENDCHAR
STARTCHAR 2030
ENCODING 8240
SWIDTH 1500 0
DWIDTH 24 0
BBX 22 11 1 0
BITMAP
3C2000
EE6000
C64000
C6C000
E78000
7D7CF8
03EFDC
02C78C
06C78C
04EFDC
087CF8
ENDCHAR
STARTCHAR 2039
ENCODING 8249
SWIDTH 375 0
DWIDTH 6 0
BBX 4 6 1 1
BITMAP
70
60
E0
E0
60
70
ENDCHAR
STARTCHAR 203A
ENCODING 8250
SWIDTH 375 0
DWIDTH 6 0
BBX 4 6 1 1
BITMAP
C0
60
70
70
60
C0
ENDCHAR
STARTCHAR 2044
ENCODING 8260
SWIDTH 562 0
DWIDTH 9 0
BBX 7 11 1 0
BITMAP
02
06
04
0C
18
10
30
20
60
C0
80
ENDCHAR
STARTCHAR 2122
ENCODING 8482
SWIDTH 625 0
DWIDTH 10 0
BBX 9 4 1 7
BITMAP
ED80
4D80
4E80
4A80
ENDCHAR
STARTCHAR 2202
ENCODING 8706
SWIDTH 500 0
DWIDTH 8 0
BBX 7 14 1 -1
BITMAP
70
08
04
02
02
02
32
CE
C6
86
84
84
C8
30
ENDCHAR
STARTCHAR 220F
ENCODING 8719
SWIDTH 875 0
DWIDTH 14 0
BBX 13 15 0 -2
BITMAP
FFF8
7FF0
3030
3030
3030
3030
3030
3030
3030
3030
3030
3030
3030
3030
FCF8
ENDCHAR
STARTCHAR 2211
ENCODING 8721
SWIDTH 750 0
DWIDTH 12 0
BBX 10 14 1 -2
BITMAP
FF80
6080
7000
3000
1800
0C00
0E00
0400
0800
1000
2000
4040
FFC0
FFC0
ENDCHAR
STARTCHAR 2212
ENCODING 8722
SWIDTH 1000 0
DWIDTH 16 0
BBX 10 1 3 4
BITMAP
FFC0
ENDCHAR
STARTCHAR 221A
ENCODING 8730
SWIDTH 562 0
DWIDTH 9 0
BBX 9 11 0 0
BITMAP
0080
0100
0100
0100
E200
2200
1200
1200
0C00
0C00
0400
ENDCHAR
STARTCHAR 221E
ENCODING 8734
SWIDTH 1000 0
DWIDTH 16 0
BBX 11 5 3 2
BITMAP
71C0
8A20
8420
8A20
71C0
ENDCHAR
STARTCHAR 222B
ENCODING 8747
SWIDTH 500 0
DWIDTH 8 0
BBX 7 15 0 -3
BITMAP
0E
0E
18
10
10
10
10
10
10
10
10
10
10
10
E0
ENDCHAR
STARTCHAR 2248
ENCODING 8776
SWIDTH 1000 0
DWIDTH 16 0
BBX 10 5 3 2
BITMAP
7840
8780
0000
7840
8780
ENDCHAR
STARTCHAR 2260
ENCODING 8800
SWIDTH 1000 0
DWIDTH 16 0
BBX 10 7 3 2
BITMAP
0100
FFC0
0400
0800
FFC0
2000
4000
ENDCHAR
STARTCHAR 2264
ENCODING 8804
SWIDTH 1000 0
DWIDTH 16 0
BBX 10 9 3 0
BITMAP
00C0
0700
3800
C000
7000
0E00
01C0
0000
FFC0
ENDCHAR
STARTCHAR 2265
ENCODING 8805
SWIDTH 1000 0
DWIDTH 16 0
BBX 10 9 3 0
BITMAP
8000
7800
0700
00C0
0700
3800
C000
0000
FFC0
ENDCHAR
STARTCHAR 25CA
ENCODING 9674
SWIDTH 562 0
DWIDTH 9 0
BBX 7 12 1 0
BITMAP
30
28
48
44
84
82
82
84
44
48
28
10
ENDCHAR
STARTCHAR FB01
ENCODING 64257
SWIDTH 687 0
DWIDTH 11 0
BBX 9 11 1 0
BITMAP
3980
3180
3000
F980
3180
3180
3180
3180
3180
3180
3180
ENDCHAR
STARTCHAR FB02
ENCODING 64258
SWIDTH 687 0
DWIDTH 11 0
BBX 9 11 1 0
BITMAP
3980
3180
3180
F980
3180
3180
3180
3180
3180
3180
3180
ENDCHAR
ENDFONT
